<svg class="svg-icon" style="width: 1em;height: 1em;vertical-align: middle;fill: currentColor;overflow: hidden;" viewBox="0 0 1024 1024" version="1.1" xmlns="http://www.w3.org/2000/svg"><path d="M311.28 924.27c-59.73 0-108.34-48.61-108.34-108.34 0-28.51 10.99-55.44 30.95-75.8l5.16-5.27V165.92c0-39.83 32.4-72.23 72.23-72.23 39.82 0 72.22 32.4 72.22 72.23v568.94l5.16 5.27c19.97 20.36 30.96 47.29 30.96 75.8-0.01 59.73-48.61 108.34-108.34 108.34z" fill="#F5F7FA" /><path d="M255.6 454.81m-18.05 0a18.05 18.05 0 1 0 36.1 0 18.05 18.05 0 1 0-36.1 0Z" fill="#434A54" /><path d="M385 454.81c0 9.97-8.08 18.05-18.05 18.05s-18.06-8.08-18.06-18.05 8.09-18.05 18.06-18.05S385 444.84 385 454.81z" fill="#434A54" /><path d="M311.28 852.04c-19.91 0-36.12-16.19-36.12-36.1s16.2-36.1 36.12-36.1c19.92 0 36.11 16.19 36.11 36.1-0.01 19.91-16.2 36.1-36.11 36.1z" fill="#ED5564" /><path d="M311.28 761.77c-29.91 0-54.17 24.25-54.17 54.17s24.26 54.17 54.17 54.17 54.17-24.25 54.17-54.17-24.26-54.17-54.17-54.17z m0 72.23c-9.96 0-18.06-8.12-18.06-18.06 0-9.97 8.11-18.06 18.06-18.06 9.96 0 18.05 8.09 18.05 18.06 0 9.94-8.09 18.06-18.05 18.06z" fill="#DA4453" /><path d="M311.28 797.87c-9.97 0-18.06-8.07-18.06-18.04V274.26c0-9.97 8.09-18.06 18.06-18.06 9.97 0 18.05 8.09 18.05 18.06v505.57c0 9.97-8.08 18.04-18.05 18.04z" fill="#DA4453" /><path d="M401.55 727.49V165.92c0-49.87-40.41-90.28-90.27-90.28S221 116.05 221 165.92v561.57c-22.34 22.8-36.11 54.01-36.11 88.44 0 69.8 56.59 126.4 126.4 126.4 69.8 0 126.39-56.6 126.39-126.4-0.02-34.43-13.79-65.64-36.13-88.44zM311.28 906.2c-49.77 0-90.28-40.49-90.28-90.27 0-23.75 9.17-46.2 25.8-63.19l10.31-10.53V165.92c0-29.87 24.29-54.17 54.17-54.17 29.86 0 54.17 24.29 54.17 54.17V742.22l10.32 10.53c16.64 16.98 25.79 39.44 25.79 63.19-0.01 49.77-40.51 90.26-90.28 90.26z" fill="#E6E9ED" /><path d="M636.28 311.68c-9.97 0-18.05 8.08-18.05 18.05v36.12c0 9.97 8.08 18.05 18.05 18.05s18.05-8.08 18.05-18.05v-36.12c0-9.97-8.08-18.05-18.05-18.05zM636.28 636.69c-9.97 0-18.05 8.1-18.05 18.04v36.13c0 9.97 8.08 18.04 18.05 18.04s18.05-8.07 18.05-18.04v-36.13c0-9.95-8.08-18.04-18.05-18.04z" fill="#F6BB42" /><path d="M495.84 369.86c-7.05 7.05-7.05 18.47 0 25.54l25.54 25.52c7.05 7.06 18.49 7.06 25.53 0 7.05-7.05 7.05-18.47 0-25.52l-25.53-25.54c-7.05-7.05-18.49-7.05-25.54 0zM725.65 599.66c-7.05 7.06-7.05 18.49 0 25.55l25.54 25.52c7.05 7.06 18.47 7.06 25.54 0 7.05-7.06 7.05-18.49 0-25.52l-25.54-25.55c-7.05-7.04-18.49-7.04-25.54 0z" fill="#FFCE54" /><path d="M437.66 510.3c0 9.97 8.08 18.05 18.06 18.05h36.1c9.97 0 18.05-8.08 18.06-18.05-0.01-9.98-8.09-18.06-18.06-18.06h-36.1c-9.98 0-18.06 8.08-18.06 18.06zM762.67 510.3c0 9.97 8.08 18.05 18.05 18.05h36.11c9.97 0 18.05-8.08 18.05-18.05 0-9.98-8.08-18.06-18.05-18.06h-36.11c-9.97 0-18.05 8.08-18.05 18.06z" fill="#F6BB42" /><path d="M495.84 650.73c7.05 7.06 18.49 7.06 25.54 0l25.53-25.52c7.05-7.06 7.05-18.49 0-25.55-7.05-7.04-18.49-7.04-25.53 0l-25.54 25.55c-7.05 7.04-7.05 18.46 0 25.52zM725.65 420.92c7.05 7.06 18.49 7.06 25.54 0l25.54-25.52c7.05-7.06 7.05-18.49 0-25.54-7.06-7.05-18.49-7.05-25.54 0l-25.54 25.54c-7.04 7.04-7.04 18.47 0 25.52zM636.28 600.56c-49.77 0-90.28-40.47-90.28-90.26 0-49.79 40.51-90.28 90.28-90.28 49.78 0 90.28 40.5 90.28 90.28 0.01 49.79-40.5 90.26-90.28 90.26z" fill="#FFCE54" /><path d="M636.28 401.97c-59.84 0-108.34 48.5-108.34 108.34s48.5 108.35 108.34 108.35c59.83 0 108.34-48.51 108.34-108.35 0-59.85-48.51-108.34-108.34-108.34z m0 180.55c-39.82 0-72.22-32.4-72.22-72.22 0-39.83 32.4-72.23 72.22-72.23s72.22 32.4 72.22 72.23c0 39.82-32.4 72.22-72.22 72.22z" fill="#F6BB42" /></svg>