<svg class="svg-icon" style="width: 1em;height: 1em;vertical-align: middle;fill: currentColor;overflow: hidden;" viewBox="0 0 1024 1024" version="1.1" xmlns="http://www.w3.org/2000/svg"><path d="M791 600.09c-2.88 0-5.78-0.72-8.46-2.27L547.9 462.35c-8.11-4.68-10.89-15.03-6.2-23.13 4.66-8.1 15.03-10.88 23.15-6.2l234.64 135.47c8.09 4.69 10.86 15.05 6.2 23.15a16.98 16.98 0 0 1-14.69 8.45z" fill="#4A89DC" /><path d="M600.34 490.02c-7.47 0-14.31-4.99-16.35-12.55l-12.38-46.26c-2.43-9.04 2.93-18.32 11.96-20.75 9.05-2.42 18.33 2.94 20.74 11.98l12.4 46.26c2.43 9.03-2.93 18.32-11.98 20.74-1.47 0.4-2.93 0.58-4.39 0.58z" fill="#4A89DC" /><path d="M554.07 502.41c-7.47 0-14.31-4.99-16.35-12.55-2.41-9.03 2.95-18.32 11.98-20.74l46.26-12.4c9.03-2.42 18.33 2.95 20.74 11.98 2.43 9.03-2.93 18.32-11.98 20.74l-46.26 12.4c-1.46 0.38-2.93 0.57-4.39 0.57zM759.39 620.96c-7.47 0-14.31-5-16.35-12.57l-12.4-46.26c-2.41-9.03 2.95-18.32 11.98-20.74 9.03-2.42 18.33 2.94 20.74 11.98l12.4 46.26c2.43 9.03-2.95 18.32-11.98 20.74-1.46 0.4-2.92 0.59-4.39 0.59z" fill="#4A89DC" /><path d="M746.99 574.7c-7.47 0-14.31-5-16.35-12.57-2.41-9.03 2.95-18.32 11.98-20.74L788.89 529c9.03-2.42 18.33 2.94 20.74 11.97 2.43 9.03-2.93 18.32-11.96 20.74l-46.26 12.4c-1.49 0.4-2.95 0.59-4.42 0.59zM556.38 600.09c-5.85 0-11.56-3.03-14.68-8.46-4.69-8.1-1.91-18.46 6.2-23.13l234.65-135.48c8.11-4.67 18.45-1.9 23.14 6.2 4.66 8.1 1.89 18.45-6.2 23.13L564.84 597.82a16.797 16.797 0 0 1-8.46 2.27z" fill="#4A89DC" /><path d="M600.36 574.7c-1.44 0-2.93-0.19-4.39-0.58l-46.26-12.4c-9.03-2.42-14.39-11.7-11.98-20.74 2.43-9.03 11.71-14.4 20.74-11.97l46.26 12.39c9.05 2.42 14.41 11.71 11.98 20.74-2.01 7.56-8.86 12.56-16.35 12.56z" fill="#4A89DC" /><path d="M587.96 620.96c-1.44 0-2.9-0.19-4.39-0.58-9.03-2.42-14.39-11.71-11.96-20.74l12.38-46.26c2.43-9.04 11.71-14.4 20.74-11.98 9.05 2.42 14.41 11.71 11.98 20.74l-12.4 46.26c-2.01 7.56-8.86 12.56-16.35 12.56zM793.28 502.41c-1.44 0-2.93-0.19-4.39-0.57l-46.26-12.4c-9.03-2.42-14.39-11.71-11.98-20.74 2.43-9.03 11.71-14.4 20.76-11.97l46.26 12.39c9.03 2.42 14.39 11.71 11.96 20.74-2.01 7.57-8.86 12.55-16.35 12.55z" fill="#4A89DC" /><path d="M747.02 490.02c-1.44 0-2.93-0.19-4.39-0.58-9.03-2.42-14.39-11.71-11.98-20.74l12.4-46.26c2.43-9.04 11.71-14.4 20.74-11.98 9.03 2.43 14.41 11.71 11.98 20.75l-12.4 46.26c-2.01 7.56-8.86 12.55-16.35 12.55z" fill="#4A89DC" /><path d="M673.69 667.83c-9.35 0-16.94-7.59-16.94-16.94V379.94c0-9.35 7.59-16.93 16.94-16.93s16.92 7.58 16.92 16.93v270.95c0 9.35-7.57 16.94-16.92 16.94z" fill="#5D9CEC" /><path d="M673.69 447.68c-4.34 0-8.68-1.65-11.98-4.96-6.62-6.61-6.62-17.33 0-23.94l33.86-33.87c6.62-6.61 17.34-6.61 23.96 0 6.6 6.61 6.6 17.34 0 23.95l-33.86 33.86c-3.32 3.3-7.64 4.96-11.98 4.96z" fill="#5D9CEC" /><path d="M673.69 447.68c-4.34 0-8.68-1.65-11.98-4.96l-33.86-33.86c-6.62-6.61-6.62-17.34 0-23.95 6.6-6.61 17.34-6.61 23.94 0l33.89 33.87c6.6 6.61 6.6 17.33 0 23.94-3.33 3.3-7.68 4.96-11.99 4.96z" fill="#5D9CEC" /><path d="M639.8 650.89c-4.32 0-8.66-1.65-11.96-4.96-6.62-6.61-6.62-17.33 0-23.94l33.86-33.87c6.62-6.61 17.34-6.61 23.96 0 6.6 6.61 6.6 17.33 0 23.95l-33.89 33.86c-3.29 3.31-7.63 4.96-11.97 4.96z" fill="#5D9CEC" /><path d="M707.55 650.89c-4.34 0-8.66-1.65-11.98-4.96l-33.86-33.86c-6.62-6.62-6.62-17.34 0-23.95 6.62-6.61 17.34-6.61 23.96 0l33.86 33.87c6.6 6.61 6.6 17.33 0 23.94-3.3 3.31-7.64 4.96-11.98 4.96z" fill="#5D9CEC" /><path d="M368.87 903.86c-56.04 0-101.61-45.58-101.61-101.61 0-26.74 10.3-52 29.02-71.11l4.84-4.94V192.6c0-37.36 30.39-67.75 67.75-67.75 37.33 0 67.72 30.39 67.72 67.75v533.6l4.86 4.94c18.71 19.11 29.02 44.36 29.02 71.11 0 56.02-45.59 101.61-101.6 101.61z" fill="#F5F7FA" /><path d="M333.59 463.55c0 9.35-7.59 16.93-16.94 16.93-9.35 0-16.94-7.58-16.94-16.93s7.59-16.93 16.94-16.93c9.35 0 16.94 7.58 16.94 16.93zM438 463.55c0 9.35-7.57 16.93-16.92 16.93-9.35 0-16.94-7.58-16.94-16.93s7.59-16.93 16.94-16.93c9.35 0 16.92 7.58 16.92 16.93z" fill="#434A54" /><path d="M368.87 836.11c-18.68 0-33.89-15.2-33.89-33.86 0-18.68 15.21-33.87 33.89-33.87s33.86 15.19 33.86 33.87c0 18.66-15.18 33.86-33.86 33.86z" fill="#ED5564" /><path d="M368.87 751.44c-28.06 0-50.8 22.73-50.8 50.8 0 28.06 22.75 50.8 50.8 50.8 28.06 0 50.8-22.75 50.8-50.8 0-28.06-22.75-50.8-50.8-50.8z m0 67.74c-9.35 0-16.94-7.59-16.94-16.93s7.59-16.94 16.94-16.94c9.33 0 16.92 7.6 16.92 16.94s-7.6 16.93-16.92 16.93z" fill="#DA4453" /><path d="M368.87 785.31c-9.35 0-16.94-7.58-16.94-16.93V666.77c0-9.35 7.59-16.93 16.94-16.93 9.35 0 16.92 7.58 16.92 16.93v101.61c-0.01 9.35-7.57 16.93-16.92 16.93z" fill="#DA4453" /><path d="M453.53 719.3V192.6c0-46.77-37.9-84.68-84.66-84.68s-84.69 37.9-84.69 84.68v526.7c-20.94 21.38-33.86 50.65-33.86 82.95 0 65.46 53.09 118.54 118.55 118.54 65.47 0 118.53-53.07 118.53-118.54-0.01-32.3-12.91-61.57-33.87-82.95z m-84.66 167.61c-46.69 0-84.69-37.98-84.69-84.66 0-22.29 8.61-43.33 24.21-59.25l9.68-9.87V192.6c0-28.02 22.77-50.8 50.8-50.8 28.01 0 50.8 22.79 50.8 50.8V733.13l9.68 9.87c15.6 15.92 24.19 36.96 24.19 59.25-0.01 46.68-37.99 84.66-84.67 84.66z" fill="#E6E9ED" /></svg>